<?xml version="1.0" encoding="UTF-8" standalone="no"?>
<!DOCTYPE svg PUBLIC "-//W3C//DTD SVG 1.1//EN" "http://www.w3.org/Graphics/SVG/1.1/DTD/svg11.dtd">
<svg width="100%" height="100%" viewBox="0 0 824 236" version="1.1" xmlns="http://www.w3.org/2000/svg" xmlns:xlink="http://www.w3.org/1999/xlink" xml:space="preserve" xmlns:serif="http://www.serif.com/" style="fill-rule:evenodd;clip-rule:evenodd;stroke-linejoin:round;stroke-miterlimit:2;">
    <g id="g379" transform="matrix(0.27434,0,0,0.27434,-47.996461,-163.125723)">
        <g id="SvgjsG1218" transform="matrix(40.496517,0,0,40.496517,174.97066,396.98951)">
            <path id="path23" d="M1.74,5.36C3.36,4.42 5.46,4.96 6.52,6.6L13.7,17.78C14.12,18.48 13.88,19.42 13.18,19.82C12.56,20.16 11.68,20.1 11.18,19.28L4.04,8.2C3.9,7.98 3.56,7.7 3.22,7.9C3.06,8 2.94,8.18 2.94,8.38L2.94,19.4C2.94,19.72 2.66,20 2.34,20C2,20 1.72,19.72 1.72,19.4L1.72,8.38C1.72,7.74 2.06,7.16 2.62,6.84C3.56,6.3 4.58,6.8 5.06,7.54L12.2,18.62C12.28,18.76 12.4,18.88 12.58,18.78C12.76,18.68 12.72,18.5 12.64,18.4L5.5,7.26C4.8,6.16 3.44,5.78 2.36,6.4C1.66,6.82 1.22,7.56 1.22,8.36L1.22,19.4C1.22,19.72 0.94,20 0.6,20C0.28,20 0,19.72 0,19.4L0,8.44C-0.02,7.18 0.64,5.98 1.74,5.36ZM12.44,4.9C13.26,4.9 13.92,5.56 13.92,6.36L13.92,14.94C13.92,15.28 13.64,15.54 13.32,15.54C12.98,15.54 12.7,15.28 12.7,14.94L12.7,6.36C12.7,6.22 12.58,6.1 12.44,6.1C12.3,6.1 12.2,6.22 12.2,6.36L12.2,12.1C12.2,12.44 11.92,12.72 11.58,12.72C11.24,12.72 10.98,12.44 10.98,12.1L10.98,6.36C10.98,5.56 11.64,4.9 12.44,4.9ZM19.02,4.88L26.44,4.88C27.24,4.88 27.9,5.54 27.9,6.34C27.9,7.14 27.28,7.82 26.48,7.82L19.02,7.82C18.72,7.82 18.46,8.06 18.46,8.38C18.46,8.68 18.72,8.94 19.02,8.94C19.36,8.94 19.64,9.2 19.64,9.54C19.64,9.88 19.36,10.16 19.02,10.16C18.04,10.16 17.26,9.36 17.26,8.38C17.26,7.4 18.04,6.6 19.02,6.6L26.44,6.6C26.58,6.6 26.68,6.48 26.68,6.34C26.68,6.2 26.58,6.1 26.44,6.1L19.02,6.1C17.76,6.1 16.74,7.12 16.74,8.38C16.74,9.64 17.76,10.66 19.02,10.66L24.4,10.66C25.38,10.66 26.18,11.46 26.18,12.46C26.18,13.44 25.38,14.22 24.4,14.22L19.02,14.22C17.76,14.22 16.74,15.24 16.74,16.5C16.74,17.76 17.76,18.78 19.02,18.78L27.28,18.78C27.62,18.78 27.9,19.06 27.9,19.4C27.9,19.74 27.62,20 27.28,20L19.02,20C17.08,20 15.52,18.44 15.52,16.5C15.52,14.58 17.08,13 19.02,13L24.4,13C24.72,13 24.96,12.76 24.96,12.46C24.96,12.12 24.72,11.88 24.4,11.88L19.02,11.88C17.1,11.88 15.52,10.3 15.52,8.38C15.52,6.44 17.1,4.88 19.02,4.88ZM19.02,14.74L24.4,14.74C24.74,14.74 25.02,15 25.02,15.34C25.02,15.68 24.74,15.96 24.4,15.96L19.02,15.96C18.72,15.96 18.46,16.2 18.46,16.5C18.46,16.82 18.72,17.06 19.02,17.06C19.36,17.06 19.62,17.34 19.62,17.68C19.62,18 19.36,18.28 19.02,18.28C18.04,18.28 17.24,17.48 17.24,16.5C17.24,15.52 18.04,14.74 19.02,14.74ZM44.2,5.3C44.78,5.88 44.78,6.8 44.2,7.38L39.14,12.44L44.2,17.5C44.82,18.08 44.78,19.02 44.2,19.56C43.66,20.1 42.7,20.18 42.16,19.6L35.86,13.3L30.8,18.36C30.7,18.46 30.7,18.6 30.8,18.7C30.9,18.8 31.04,18.8 31.14,18.7L35.44,14.42C35.68,14.18 36.06,14.18 36.3,14.42C36.54,14.66 36.54,15.04 36.3,15.28L31.98,19.6C31.4,20.14 30.48,20.14 29.94,19.56C29.36,19.02 29.36,18.08 29.94,17.5L35,12.44L29.94,7.38C29.36,6.8 29.36,5.88 29.94,5.3C30.48,4.74 31.46,4.74 32,5.3L36.24,9.54C36.48,9.78 36.48,10.16 36.24,10.4C36,10.64 35.62,10.64 35.38,10.4L31.14,6.16C31.04,6.06 30.88,6.06 30.8,6.16C30.7,6.26 30.7,6.42 30.8,6.52L35.86,11.58L42.14,5.3C42.68,4.74 43.66,4.74 44.2,5.3ZM43.36,6.16C43.26,6.06 43.1,6.06 42.98,6.18L36.72,12.44L42.98,18.7C43.08,18.8 43.24,18.8 43.34,18.7C43.42,18.62 43.44,18.46 43.34,18.36L37.84,12.88C37.6,12.64 37.6,12.26 37.84,12.02L43.32,6.54C43.46,6.4 43.46,6.26 43.36,6.16ZM58,4.88C58.8,4.88 59.44,5.52 59.46,6.32L59.46,13.64C59.46,15.4 58.78,17.06 57.52,18.32C56.24,19.6 54.54,20.24 52.86,20.24C51.16,20.24 49.48,19.6 48.2,18.32C46.94,17.06 46.26,15.4 46.26,13.64C46.26,13.32 46.52,13.04 46.86,13.04C47.18,13.04 47.46,13.32 47.46,13.64C47.46,15.08 48.02,16.44 49.04,17.46C51.14,19.58 54.58,19.58 56.68,17.46C57.7,16.44 58.26,15.08 58.26,13.64L58.26,6.34C58.26,6.2 58.14,6.08 58,6.08C57.84,6.08 57.72,6.2 57.72,6.34L57.72,13.64C57.72,14.94 57.22,16.16 56.3,17.08C55.38,18 54.16,18.5 52.86,18.5C51.56,18.5 50.34,18 49.42,17.08C48.5,16.16 48,14.94 48,13.64L48,5.48C48,5.14 48.26,4.88 48.58,4.88C48.92,4.88 49.18,5.14 49.18,5.48L49.18,13.64C49.18,14.62 49.56,15.54 50.26,16.24C50.96,16.94 51.88,17.32 52.86,17.32C53.84,17.32 54.76,16.94 55.46,16.24C56.14,15.54 56.54,14.62 56.54,13.64L56.54,6.32C56.54,5.52 57.2,4.88 58,4.88ZM65.58,4.88L71.38,4.88C72.2,4.88 72.86,5.54 72.86,6.36C72.86,7.16 72.2,7.82 71.38,7.82L65.56,7.82C64.7,7.82 64,8.52 64,9.4C64,10.26 64.7,10.96 65.56,10.96L69.56,10.96C72.06,10.96 74.08,12.98 74.08,15.48C74.08,15.82 73.8,16.08 73.48,16.08C73.14,16.08 72.86,15.82 72.86,15.48C72.86,13.66 71.38,12.18 69.56,12.18L65.56,12.18C64.02,12.18 62.78,10.94 62.78,9.4C62.78,7.86 64.02,6.6 65.56,6.6L71.38,6.6C71.52,6.6 71.64,6.5 71.64,6.36C71.64,6.22 71.52,6.1 71.38,6.1L65.58,6.1C63.76,6.1 62.28,7.58 62.28,9.4C62.28,9.74 62,10 61.66,10C61.34,10 61.06,9.74 61.06,9.4C61.06,6.9 63.08,4.88 65.58,4.88ZM65.58,12.7L69.58,12.7C71.12,12.7 72.36,13.96 72.36,15.5C72.36,17.04 71.12,18.28 69.58,18.28L63.18,18.28C63.04,18.28 62.92,18.4 62.92,18.54C62.92,18.68 63.04,18.78 63.18,18.78L69.56,18.78C69.9,18.78 70.16,19.06 70.16,19.4C70.16,19.72 69.9,20 69.56,20L63.18,20C62.36,20 61.7,19.34 61.7,18.54C61.7,17.74 62.32,17.06 63.12,17.06L69.58,17.06C70.44,17.06 71.14,16.36 71.14,15.5C71.14,14.62 70.44,13.92 69.58,13.92L65.58,13.92C65.24,13.92 64.98,13.64 64.98,13.32C64.98,12.98 65.24,12.7 65.58,12.7Z" style="fill:url(#_Linear1);fill-rule:nonzero;"/>
        </g>
        <g id="SvgjsG1219" transform="matrix(5.947818,0,0,5.947818,525.0867,1333.5612)">
            <path id="path26" d="M7.46,20.3L2.54,20.3C2.38,20.3 2.227,20.253 2.08,20.16C1.933,20.067 1.827,19.947 1.76,19.8C1.64,19.587 1.627,19.347 1.72,19.08L1.72,5.4C1.72,5.16 1.807,4.953 1.98,4.78C2.153,4.607 2.367,4.52 2.62,4.52L7.44,4.52C8.493,4.52 9.453,4.747 10.32,5.2C11.187,5.653 11.927,6.247 12.54,6.98C13.153,7.713 13.627,8.547 13.96,9.48C14.293,10.413 14.46,11.36 14.46,12.32C14.46,13.507 14.257,14.59 13.85,15.57C13.443,16.55 12.91,17.39 12.25,18.09C11.59,18.79 10.84,19.333 10,19.72C9.16,20.107 8.313,20.3 7.46,20.3L7.46,20.3ZM7.44,6.28L3.5,6.28L3.5,18.54L7.46,18.54C8.22,18.54 8.917,18.357 9.55,17.99C10.183,17.623 10.733,17.147 11.2,16.56C11.667,15.973 12.03,15.307 12.29,14.56C12.55,13.813 12.68,13.067 12.68,12.32C12.68,11.56 12.553,10.817 12.3,10.09C12.047,9.363 11.69,8.717 11.23,8.15C10.77,7.583 10.217,7.13 9.57,6.79C8.923,6.45 8.213,6.28 7.44,6.28L7.44,6.28ZM28.666,20.3C28.413,20.3 28.199,20.213 28.026,20.04C27.853,19.867 27.766,19.66 27.766,19.42L27.766,5.4C27.766,5.16 27.853,4.953 28.026,4.78C28.199,4.607 28.413,4.52 28.666,4.52C28.906,4.52 29.113,4.607 29.286,4.78C29.459,4.953 29.546,5.16 29.546,5.4L29.546,19.42C29.546,19.66 29.459,19.867 29.286,20.04C29.113,20.213 28.906,20.3 28.666,20.3ZM56.492,17.96C55.732,18.72 54.869,19.3 53.902,19.7C52.935,20.1 51.912,20.3 50.832,20.3C49.725,20.3 48.689,20.09 47.722,19.67C46.755,19.25 45.912,18.68 45.192,17.96C44.472,17.24 43.902,16.397 43.482,15.43C43.062,14.463 42.852,13.427 42.852,12.32C42.852,11.213 43.062,10.187 43.482,9.24C43.902,8.293 44.475,7.47 45.202,6.77C45.929,6.07 46.775,5.52 47.742,5.12C48.709,4.72 49.739,4.52 50.832,4.52C51.912,4.52 52.935,4.72 53.902,5.12C54.869,5.52 55.732,6.1 56.492,6.86C56.665,7.033 56.752,7.24 56.752,7.48C56.752,7.72 56.665,7.927 56.492,8.1C56.305,8.287 56.092,8.38 55.852,8.38C55.612,8.38 55.405,8.287 55.232,8.1C54.632,7.513 53.959,7.063 53.212,6.75C52.465,6.437 51.672,6.28 50.832,6.28C49.979,6.28 49.175,6.433 48.422,6.74C47.669,7.047 47.012,7.47 46.452,8.01C45.892,8.55 45.449,9.19 45.122,9.93C44.795,10.67 44.632,11.467 44.632,12.32C44.632,13.173 44.795,13.977 45.122,14.73C45.449,15.483 45.892,16.14 46.452,16.7C47.012,17.26 47.669,17.703 48.422,18.03C49.175,18.357 49.979,18.52 50.832,18.52C51.605,18.52 52.345,18.387 53.052,18.12C53.759,17.853 54.399,17.467 54.972,16.96L54.972,13.2L50.932,13.2C50.679,13.2 50.465,13.113 50.292,12.94C50.119,12.767 50.032,12.56 50.032,12.32C50.032,12.067 50.119,11.853 50.292,11.68C50.465,11.507 50.679,11.42 50.932,11.42L55.852,11.42C56.105,11.42 56.319,11.507 56.492,11.68C56.665,11.853 56.752,12.067 56.752,12.32L56.752,17.34C56.752,17.58 56.665,17.787 56.492,17.96L56.492,17.96ZM71.398,20.3C71.145,20.3 70.931,20.213 70.758,20.04C70.585,19.867 70.498,19.66 70.498,19.42L70.498,5.4C70.498,5.16 70.585,4.953 70.758,4.78C70.931,4.607 71.145,4.52 71.398,4.52C71.638,4.52 71.845,4.607 72.018,4.78C72.191,4.953 72.278,5.16 72.278,5.4L72.278,19.42C72.278,19.66 72.191,19.867 72.018,20.04C71.845,20.213 71.638,20.3 71.398,20.3ZM93.624,6.28L90.384,6.28L90.384,19.42C90.384,19.66 90.297,19.867 90.124,20.04C89.951,20.213 89.744,20.3 89.504,20.3C89.251,20.3 89.037,20.213 88.864,20.04C88.691,19.867 88.604,19.66 88.604,19.42L88.604,6.28L85.364,6.28C85.124,6.28 84.917,6.197 84.744,6.03C84.571,5.863 84.484,5.653 84.484,5.4C84.484,5.16 84.571,4.953 84.744,4.78C84.917,4.607 85.124,4.52 85.364,4.52L93.624,4.52C93.864,4.52 94.071,4.607 94.244,4.78C94.417,4.953 94.504,5.16 94.504,5.4C94.504,5.653 94.417,5.863 94.244,6.03C94.071,6.197 93.864,6.28 93.624,6.28L93.624,6.28ZM118.67,20.22C118.563,20.273 118.45,20.3 118.33,20.3C118.157,20.3 117.993,20.253 117.84,20.16C117.687,20.067 117.577,19.933 117.51,19.76L115.93,16.04L108.67,16.04L107.09,19.76C106.997,19.987 106.837,20.147 106.61,20.24C106.383,20.333 106.157,20.327 105.93,20.22C105.703,20.127 105.543,19.967 105.45,19.74C105.357,19.513 105.363,19.287 105.47,19.06L107.27,14.8L111.49,4.92C111.557,4.747 111.663,4.613 111.81,4.52C111.957,4.427 112.123,4.38 112.31,4.38C112.483,4.38 112.643,4.427 112.79,4.52C112.937,4.613 113.043,4.747 113.11,4.92C114.123,7.293 115.13,9.65 116.13,11.99C117.13,14.33 118.137,16.687 119.15,19.06C119.243,19.287 119.243,19.513 119.15,19.74C119.057,19.967 118.897,20.127 118.67,20.22L118.67,20.22ZM112.31,7.54L109.43,14.26L115.17,14.26L112.31,7.54ZM137.856,20.3L132.516,20.3C132.276,20.3 132.069,20.213 131.896,20.04C131.723,19.867 131.636,19.66 131.636,19.42L131.636,5.4C131.636,5.147 131.723,4.937 131.896,4.77C132.069,4.603 132.276,4.52 132.516,4.52C132.769,4.52 132.979,4.603 133.146,4.77C133.313,4.937 133.396,5.147 133.396,5.4L133.396,18.54L137.856,18.54C138.109,18.54 138.323,18.627 138.496,18.8C138.669,18.973 138.756,19.18 138.756,19.42C138.756,19.66 138.669,19.867 138.496,20.04C138.323,20.213 138.109,20.3 137.856,20.3ZM169.088,20.3C168.835,20.3 168.621,20.213 168.448,20.04C168.275,19.867 168.188,19.66 168.188,19.42L168.188,5.4C168.188,5.16 168.275,4.953 168.448,4.78C168.621,4.607 168.835,4.52 169.088,4.52C169.328,4.52 169.535,4.607 169.708,4.78C169.881,4.953 169.968,5.16 169.968,5.4L169.968,19.42C169.968,19.66 169.881,19.867 169.708,20.04C169.535,20.213 169.328,20.3 169.088,20.3ZM193.454,20.3C193.121,20.3 192.867,20.16 192.694,19.88L185.474,8.44L185.474,19.42C185.474,19.66 185.391,19.867 185.224,20.04C185.057,20.213 184.847,20.3 184.594,20.3C184.354,20.3 184.147,20.213 183.974,20.04C183.801,19.867 183.714,19.66 183.714,19.42L183.714,5.4C183.714,5.16 183.801,4.953 183.974,4.78C184.147,4.607 184.354,4.52 184.594,4.52C184.927,4.52 185.181,4.653 185.354,4.92L192.574,16.36L192.574,5.4C192.574,5.16 192.657,4.953 192.824,4.78C192.991,4.607 193.201,4.52 193.454,4.52C193.694,4.52 193.901,4.607 194.074,4.78C194.247,4.953 194.334,5.16 194.334,5.4L194.334,19.42C194.334,19.66 194.247,19.867 194.074,20.04C193.901,20.213 193.694,20.3 193.454,20.3ZM217.82,20.3C217.487,20.3 217.233,20.16 217.06,19.88L209.84,8.44L209.84,19.42C209.84,19.66 209.757,19.867 209.59,20.04C209.423,20.213 209.213,20.3 208.96,20.3C208.72,20.3 208.513,20.213 208.34,20.04C208.167,19.867 208.08,19.66 208.08,19.42L208.08,5.4C208.08,5.16 208.167,4.953 208.34,4.78C208.513,4.607 208.72,4.52 208.96,4.52C209.293,4.52 209.547,4.653 209.72,4.92L216.94,16.36L216.94,5.4C216.94,5.16 217.023,4.953 217.19,4.78C217.357,4.607 217.567,4.52 217.82,4.52C218.06,4.52 218.267,4.607 218.44,4.78C218.613,4.953 218.7,5.16 218.7,5.4L218.7,19.42C218.7,19.66 218.613,19.867 218.44,20.04C218.267,20.213 218.06,20.3 217.82,20.3ZM239.906,20.3C238.813,20.3 237.786,20.093 236.826,19.68C235.866,19.267 235.029,18.703 234.316,17.99C233.603,17.277 233.039,16.44 232.626,15.48C232.213,14.52 232.006,13.493 232.006,12.4C232.006,11.32 232.213,10.3 232.626,9.34C233.039,8.38 233.603,7.543 234.316,6.83C235.029,6.117 235.866,5.553 236.826,5.14C237.786,4.727 238.813,4.52 239.906,4.52C240.986,4.52 242.006,4.727 242.966,5.14C243.926,5.553 244.763,6.117 245.476,6.83C246.189,7.543 246.753,8.38 247.166,9.34C247.579,10.3 247.786,11.32 247.786,12.4C247.786,13.493 247.579,14.52 247.166,15.48C246.753,16.44 246.189,17.277 245.476,17.99C244.763,18.703 243.926,19.267 242.966,19.68C242.006,20.093 240.986,20.3 239.906,20.3ZM239.906,6.28C239.066,6.28 238.273,6.44 237.526,6.76C236.779,7.08 236.126,7.517 235.566,8.07C235.006,8.623 234.566,9.273 234.246,10.02C233.926,10.767 233.766,11.56 233.766,12.4C233.766,13.24 233.926,14.033 234.246,14.78C234.566,15.527 235.006,16.18 235.566,16.74C236.126,17.3 236.779,17.74 237.526,18.06C238.273,18.38 239.066,18.54 239.906,18.54C240.746,18.54 241.539,18.38 242.286,18.06C243.033,17.74 243.683,17.3 244.236,16.74C244.789,16.18 245.226,15.527 245.546,14.78C245.866,14.033 246.026,13.24 246.026,12.4C246.026,11.56 245.866,10.767 245.546,10.02C245.226,9.273 244.789,8.623 244.236,8.07C243.683,7.517 243.033,7.08 242.286,6.76C241.539,6.44 240.746,6.28 239.906,6.28ZM272.692,5.6L266.992,19.74C266.925,19.913 266.819,20.05 266.672,20.15C266.525,20.25 266.359,20.3 266.172,20.3C265.985,20.3 265.819,20.25 265.672,20.15C265.525,20.05 265.419,19.913 265.352,19.74L259.632,5.6C259.592,5.507 259.572,5.393 259.572,5.26C259.572,5.02 259.659,4.813 259.832,4.64C260.005,4.467 260.212,4.38 260.452,4.38C260.639,4.38 260.809,4.43 260.962,4.53C261.115,4.63 261.225,4.767 261.292,4.94L266.172,17.04L271.052,4.94C271.119,4.767 271.225,4.63 271.372,4.53C271.519,4.43 271.685,4.38 271.872,4.38C272.125,4.38 272.339,4.467 272.512,4.64C272.685,4.813 272.772,5.02 272.772,5.26C272.772,5.393 272.745,5.507 272.692,5.6L272.692,5.6ZM295.738,20.22C295.631,20.273 295.518,20.3 295.398,20.3C295.225,20.3 295.061,20.253 294.908,20.16C294.755,20.067 294.645,19.933 294.578,19.76L292.998,16.04L285.738,16.04L284.158,19.76C284.065,19.987 283.905,20.147 283.678,20.24C283.451,20.333 283.225,20.327 282.998,20.22C282.771,20.127 282.611,19.967 282.518,19.74C282.425,19.513 282.431,19.287 282.538,19.06L284.338,14.8L288.558,4.92C288.625,4.747 288.731,4.613 288.878,4.52C289.025,4.427 289.191,4.38 289.378,4.38C289.551,4.38 289.711,4.427 289.858,4.52C290.005,4.613 290.111,4.747 290.178,4.92C291.191,7.293 292.198,9.65 293.198,11.99C294.198,14.33 295.205,16.687 296.218,19.06C296.311,19.287 296.311,19.513 296.218,19.74C296.125,19.967 295.965,20.127 295.738,20.22L295.738,20.22ZM289.378,7.54L286.498,14.26L292.238,14.26L289.378,7.54ZM315.104,6.28L311.864,6.28L311.864,19.42C311.864,19.66 311.777,19.867 311.604,20.04C311.431,20.213 311.224,20.3 310.984,20.3C310.731,20.3 310.517,20.213 310.344,20.04C310.171,19.867 310.084,19.66 310.084,19.42L310.084,6.28L306.844,6.28C306.604,6.28 306.397,6.197 306.224,6.03C306.051,5.863 305.964,5.653 305.964,5.4C305.964,5.16 306.051,4.953 306.224,4.78C306.397,4.607 306.604,4.52 306.844,4.52L315.104,4.52C315.344,4.52 315.551,4.607 315.724,4.78C315.897,4.953 315.984,5.16 315.984,5.4C315.984,5.653 315.897,5.863 315.724,6.03C315.551,6.197 315.344,6.28 315.104,6.28L315.104,6.28ZM329.09,20.3C328.837,20.3 328.623,20.213 328.45,20.04C328.277,19.867 328.19,19.66 328.19,19.42L328.19,5.4C328.19,5.16 328.277,4.953 328.45,4.78C328.623,4.607 328.837,4.52 329.09,4.52C329.33,4.52 329.537,4.607 329.71,4.78C329.883,4.953 329.97,5.16 329.97,5.4L329.97,19.42C329.97,19.66 329.883,19.867 329.71,20.04C329.537,20.213 329.33,20.3 329.09,20.3ZM351.176,20.3C350.083,20.3 349.056,20.093 348.096,19.68C347.136,19.267 346.299,18.703 345.586,17.99C344.873,17.277 344.309,16.44 343.896,15.48C343.483,14.52 343.276,13.493 343.276,12.4C343.276,11.32 343.483,10.3 343.896,9.34C344.309,8.38 344.873,7.543 345.586,6.83C346.299,6.117 347.136,5.553 348.096,5.14C349.056,4.727 350.083,4.52 351.176,4.52C352.256,4.52 353.276,4.727 354.236,5.14C355.196,5.553 356.033,6.117 356.746,6.83C357.459,7.543 358.023,8.38 358.436,9.34C358.849,10.3 359.056,11.32 359.056,12.4C359.056,13.493 358.849,14.52 358.436,15.48C358.023,16.44 357.459,17.277 356.746,17.99C356.033,18.703 355.196,19.267 354.236,19.68C353.276,20.093 352.256,20.3 351.176,20.3ZM351.176,6.28C350.336,6.28 349.543,6.44 348.796,6.76C348.049,7.08 347.396,7.517 346.836,8.07C346.276,8.623 345.836,9.273 345.516,10.02C345.196,10.767 345.036,11.56 345.036,12.4C345.036,13.24 345.196,14.033 345.516,14.78C345.836,15.527 346.276,16.18 346.836,16.74C347.396,17.3 348.049,17.74 348.796,18.06C349.543,18.38 350.336,18.54 351.176,18.54C352.016,18.54 352.809,18.38 353.556,18.06C354.303,17.74 354.953,17.3 355.506,16.74C356.059,16.18 356.496,15.527 356.816,14.78C357.136,14.033 357.296,13.24 357.296,12.4C357.296,11.56 357.136,10.767 356.816,10.02C356.496,9.273 356.059,8.623 355.506,8.07C354.953,7.517 354.303,7.08 353.556,6.76C352.809,6.44 352.016,6.28 351.176,6.28ZM382.122,20.3C381.789,20.3 381.535,20.16 381.362,19.88L374.142,8.44L374.142,19.42C374.142,19.66 374.059,19.867 373.892,20.04C373.725,20.213 373.515,20.3 373.262,20.3C373.022,20.3 372.815,20.213 372.642,20.04C372.469,19.867 372.382,19.66 372.382,19.42L372.382,5.4C372.382,5.16 372.469,4.953 372.642,4.78C372.815,4.607 373.022,4.52 373.262,4.52C373.595,4.52 373.849,4.653 374.022,4.92L381.242,16.36L381.242,5.4C381.242,5.16 381.325,4.953 381.492,4.78C381.659,4.607 381.869,4.52 382.122,4.52C382.362,4.52 382.569,4.607 382.742,4.78C382.915,4.953 383.002,5.16 383.002,5.4L383.002,19.42C383.002,19.66 382.915,19.867 382.742,20.04C382.569,20.213 382.362,20.3 382.122,20.3ZM400.728,20.3C400.115,20.3 399.541,20.183 399.008,19.95C398.475,19.717 398.008,19.4 397.608,19C397.208,18.6 396.891,18.133 396.658,17.6C396.425,17.067 396.308,16.493 396.308,15.88C396.308,15.627 396.395,15.413 396.568,15.24C396.741,15.067 396.955,14.98 397.208,14.98C397.448,14.98 397.655,15.067 397.828,15.24C398.001,15.413 398.088,15.627 398.088,15.88C398.088,16.24 398.158,16.58 398.298,16.9C398.438,17.22 398.628,17.5 398.868,17.74C399.108,17.98 399.388,18.17 399.708,18.31C400.028,18.45 400.368,18.52 400.728,18.52C401.088,18.52 401.431,18.45 401.758,18.31C402.085,18.17 402.368,17.98 402.608,17.74C402.848,17.5 403.038,17.22 403.178,16.9C403.318,16.58 403.388,16.24 403.388,15.88C403.388,15.44 403.301,15.077 403.128,14.79C402.955,14.503 402.715,14.253 402.408,14.04C402.261,13.933 402.095,13.837 401.908,13.75C401.721,13.663 401.528,13.573 401.328,13.48C401.128,13.4 400.921,13.32 400.708,13.24C400.495,13.16 400.275,13.08 400.048,13C399.608,12.84 399.165,12.66 398.718,12.46C398.271,12.26 397.871,12.01 397.518,11.71C397.165,11.41 396.875,11.037 396.648,10.59C396.421,10.143 396.308,9.593 396.308,8.94C396.308,8.327 396.425,7.753 396.658,7.22C396.891,6.687 397.208,6.22 397.608,5.82C398.008,5.42 398.475,5.103 399.008,4.87C399.541,4.637 400.115,4.52 400.728,4.52C401.341,4.52 401.918,4.637 402.458,4.87C402.998,5.103 403.468,5.42 403.868,5.82C404.268,6.22 404.585,6.687 404.818,7.22C405.051,7.753 405.168,8.327 405.168,8.94C405.168,9.18 405.081,9.387 404.908,9.56C404.735,9.733 404.521,9.82 404.268,9.82C404.028,9.82 403.821,9.733 403.648,9.56C403.475,9.387 403.388,9.18 403.388,8.94C403.388,8.58 403.318,8.237 403.178,7.91C403.038,7.583 402.848,7.3 402.608,7.06C402.368,6.82 402.085,6.63 401.758,6.49C401.431,6.35 401.088,6.28 400.728,6.28C400.368,6.28 400.028,6.35 399.708,6.49C399.388,6.63 399.108,6.82 398.868,7.06C398.628,7.3 398.438,7.583 398.298,7.91C398.158,8.237 398.088,8.58 398.088,8.94C398.088,9.34 398.171,9.673 398.338,9.94C398.505,10.207 398.741,10.44 399.048,10.64C399.368,10.84 399.728,11.02 400.128,11.18L400.768,11.42L401.428,11.66C401.868,11.82 402.311,12.003 402.758,12.21C403.205,12.417 403.605,12.677 403.958,12.99C404.311,13.303 404.601,13.693 404.828,14.16C405.055,14.627 405.168,15.2 405.168,15.88C405.168,16.493 405.051,17.067 404.818,17.6C404.585,18.133 404.268,18.6 403.868,19C403.468,19.4 402.998,19.717 402.458,19.95C401.918,20.183 401.341,20.3 400.728,20.3Z" style="fill:rgb(68,79,90);fill-rule:nonzero;"/>
        </g>
    </g>
    <defs>
        <linearGradient id="_Linear1" x1="0" y1="0" x2="1" y2="0" gradientUnits="userSpaceOnUse" gradientTransform="matrix(74.080435,0,0,74.080435,-0.000442,4.88)"><stop offset="0" style="stop-color:rgb(38,39,95);stop-opacity:1"/><stop offset="0.14" style="stop-color:rgb(129,62,150);stop-opacity:1"/><stop offset="0.29" style="stop-color:rgb(46,100,175);stop-opacity:1"/><stop offset="0.5" style="stop-color:rgb(63,170,73);stop-opacity:1"/><stop offset="0.71" style="stop-color:rgb(242,230,74);stop-opacity:1"/><stop offset="0.86" style="stop-color:rgb(242,144,59);stop-opacity:1"/><stop offset="1" style="stop-color:rgb(237,69,51);stop-opacity:1"/></linearGradient>
    </defs>
</svg>
